PathFileType  4	(X/Y/Z) C:\Users\antoi\Documents\MyRepositories\mobilecap\ResultsAnalysis
DataRate	CameraRate	NumFrames	NumMarkers	Units	OrigDataRate	OrigDataStartFrame	OrigNumFrames
100.0	100.0	4	51	mm	100.0	72	143
Frame#	Time	r_knee			r_shank_antsup			r_ankle			r_calc			r_5meta			r_toe			L_knee			L_shank_antsup			L_ankle			L_calc			L_5meta			L_toe			r_sh2			r_sh3			r_sh4			L_sh2			L_sh3			r_thigh1			r_thigh2			r_thigh3			r_thigh4			r_thigh5			L_thigh1			L_thigh2			L_thigh3			L_thigh4			r.ASIS			r.PSIS			L.ASIS			L.PSIS			C7			R_Shoulder			L_Shoulder			R_Sternum			L_Sternum			R_humerus			R_elbow_med			R_elbow_lat			R_forearm			R_wrist_radius			R_wrist_ulna			L_humerus			L_elbow_med			L_elbow_lat			L_forearm			L_wrist_radius			L_wrist_ulna			R_HJC			L_HJC			R_HJC_reg			L_HJC_reg			
		X1	Y1	Z1	X2	Y2	Z2	X3	Y3	Z3	X4	Y4	Z4	X5	Y5	Z5	X6	Y6	Z6	X7	Y7	Z7	X8	Y8	Z8	X9	Y9	Z9	X10	Y10	Z10	X11	Y11	Z11	X12	Y12	Z12	X13	Y13	Z13	X14	Y14	Z14	X15	Y15	Z15	X16	Y16	Z16	X17	Y17	Z17	X18	Y18	Z18	X19	Y19	Z19	X20	Y20	Z20	X21	Y21	Z21	X22	Y22	Z22	X23	Y23	Z23	X24	Y24	Z24	X25	Y25	Z25	X26	Y26	Z26	X27	Y27	Z27	X28	Y28	Z28	X29	Y29	Z29	X30	Y30	Z30	X31	Y31	Z31	X32	Y32	Z32	X33	Y33	Z33	X34	Y34	Z34	X35	Y35	Z35	X36	Y36	Z36	X37	Y37	Z37	X38	Y38	Z38	X39	Y39	Z39	X40	Y40	Z40	X41	Y41	Z41	X42	Y42	Z42	X43	Y43	Z43	X44	Y44	Z44	X45	Y45	Z45	X46	Y46	Z46	X47	Y47	Z47	X48	Y48	Z48	X49	Y49	Z49	X50	Y50	Z50	X51	Y51	Z51	

72	0.71000000	481.94447	471.69521	-36.83243	451.62343	370.53316	-49.55997	189.24424	177.18463	-90.73241	125.67477	194.04397	-144.04818	237.05645	54.37874	-56.59906	286.85011	61.65984	-107.00342	753.75719	500.46957	-288.21919	805.06299	422.79506	-272.11738	771.08368	95.61522	-263.21335	701.14316	50.42604	-212.78432	876.64759	40.33078	-302.94197	924.37557	67.53176	-246.99545	374.16888	289.69161	-62.40670	401.25051	412.84147	-12.34505	316.93793	335.69083	-22.06751	724.91048	427.13558	-315.89395	731.08839	306.18264	-318.91317	600.33646	732.81161	8.87323	587.69752	625.27878	-10.61278	527.84904	603.10704	12.60018	487.27312	739.34357	25.42734	478.56193	627.83193	-5.33540	736.24332	754.84515	-303.19898	790.91538	628.75452	-273.99244	648.20049	706.84496	-349.05946	698.08041	587.43373	-314.47100	663.58685	931.42406	-20.80941	470.47558	979.19951	-120.46586	693.58776	932.35649	-273.43326	479.62904	974.74433	-214.17673	545.04938	1407.75347	-288.15952	621.06400	1427.95875	-119.05069	633.04644	1310.22648	-417.02363	666.29762	1339.06634	-236.04742	665.66220	1323.69203	-279.83505	655.53822	1312.75769	-34.75019	550.07476	1120.63171	-2.00219	578.01691	1144.10236	55.46841	640.25604	1079.81726	68.95505	683.80022	912.89783	52.92655	665.72703	920.61101	99.73067	659.51246	1160.56089	-434.36241	592.59144	974.69457	-351.28583	603.09630	972.08506	-429.26126	653.38830	916.47305	-438.51823	715.16275	753.86502	-398.12093	675.04880	748.29502	-428.40846	579.46278	849.91939	-54.54930	600.47573	850.78548	-242.92961	589.89680	866.66899	-60.92328	606.21752	858.70886	-227.82010	
73	0.72000000	503.66098	470.39681	-35.67117	470.68089	369.88558	-48.09874	203.19727	185.57464	-89.10561	141.64875	207.94686	-142.53360	241.24370	58.99530	-56.62199	291.71596	63.04972	-106.33464	762.83083	501.11070	-288.89691	812.50809	422.11184	-272.71994	771.33351	95.46792	-263.40943	701.15088	50.46223	-212.99155	876.65743	40.26081	-302.99968	924.54976	67.20217	-246.92592	390.80588	291.39539	-60.82910	421.65337	413.92674	-11.24229	335.00878	339.43718	-20.85755	732.58643	428.07056	-316.65198	736.24365	307.12294	-319.56855	616.33797	734.01371	7.97377	606.53429	626.04631	-10.39019	546.90352	602.60766	12.65672	503.21422	738.02586	24.58278	497.13690	626.20283	-5.40548	748.38557	756.06475	-303.00520	801.56098	629.35958	-273.76079	660.52998	709.19297	-350.14604	708.70212	589.12849	-315.65930	676.71365	933.38592	-22.45174	483.56461	981.01992	-119.66857	706.04645	934.85220	-274.83924	492.13161	977.52794	-214.02826	558.15179	1408.48328	-291.76861	634.43695	1430.12838	-123.06274	646.09234	1310.06081	-420.02923	679.51715	1340.11288	-239.34170	678.81318	1324.42495	-283.08565	668.70035	1315.56645	-37.82695	561.91743	1124.42876	-4.20762	590.29905	1147.73489	53.18604	651.72685	1082.63373	66.72375	692.40773	914.78578	51.84949	674.84219	923.22511	98.75159	672.75111	1160.33088	-436.34503	605.19900	975.04676	-352.42652	616.30076	971.85811	-430.39133	666.54277	916.19769	-438.95178	727.86217	753.75597	-397.17555	687.85906	748.01976	-427.66862	592.87141	851.79899	-55.48801	612.72604	853.37024	-243.99309	603.68302	867.68795	-62.59541	618.84990	861.48855	-229.47258	
74	0.73000000	526.07815	469.04335	-34.23840	490.80080	369.27396	-46.61317	218.57942	194.11530	-87.55026	159.48775	221.87491	-141.18752	246.51345	64.48958	-56.64723	297.69752	65.20725	-105.54184	771.23618	501.35968	-289.43991	819.35312	421.19986	-273.27884	771.59885	95.32936	-263.55422	701.18693	50.58709	-213.17199	876.66194	40.21618	-303.02126	924.73152	66.94004	-246.83396	408.54098	293.11645	-59.34631	443.07326	414.79701	-9.96826	354.30913	342.95803	-19.51870	739.56863	428.62690	-317.18956	740.90326	307.73539	-319.97880	632.28815	735.39135	7.18758	625.57228	626.87332	-10.06353	566.17457	602.24215	12.91516	519.14295	736.71373	23.57583	515.94526	624.69668	-5.31377	760.07200	756.72304	-303.07915	811.57993	629.36539	-273.68074	672.23124	711.04013	-351.11727	718.50765	590.29993	-316.66579	689.48290	935.51050	-24.15394	496.38148	982.64702	-119.20815	718.41348	937.35758	-276.41717	504.46989	980.04014	-214.18824	571.05537	1409.32779	-295.17826	647.46848	1432.36586	-126.85188	659.04971	1310.15624	-422.83945	692.54587	1341.30054	-242.35711	691.82522	1325.32606	-286.05253	681.62429	1318.49901	-40.70109	573.63149	1128.24088	-6.35350	602.42646	1151.34879	50.97578	663.07544	1085.51334	64.55559	701.06858	916.82961	50.81372	683.96343	925.95227	97.78937	685.99748	1160.40799	-438.17669	617.74560	975.64180	-353.58425	629.51763	971.89256	-431.51482	679.74827	916.21762	-439.34420	740.53978	753.92703	-396.20211	700.76557	748.07915	-426.99136	606.10949	853.69043	-56.56463	624.98058	855.85080	-245.17030	617.22180	868.73649	-64.38091	631.44431	864.14030	-231.29162	
75	0.74000000	548.96098	467.75903	-32.59056	511.79542	368.79723	-45.18355	235.25059	202.61854	-86.12482	178.86695	235.28463	-140.10985	253.34790	70.74589	-56.54584	305.21557	68.18068	-104.56360	778.98232	501.31676	-289.90227	825.57432	420.16370	-273.83397	771.87358	95.20518	-263.65444	701.24769	50.75294	-213.31650	876.66483	40.17137	-303.02551	924.91935	66.70421	-246.73939	427.26364	294.91263	-58.01387	465.33015	415.51906	-8.56740	374.67511	346.26829	-18.09718	745.83310	428.91133	-317.57508	745.05606	308.10222	-320.21527	648.11808	736.94435	6.51367	644.64888	627.82030	-9.60689	585.50589	602.08844	13.36771	534.98608	735.49976	22.39112	534.83574	623.47909	-5.02825	771.23967	756.92008	-303.46396	820.97343	628.89896	-273.83533	683.26519	712.41291	-352.00633	727.53516	591.03396	-317.52664	701.88051	937.68660	-25.87902	508.88179	984.07492	-119.19337	730.64518	939.70899	-278.08395	516.65808	982.22983	-214.69429	583.82406	1410.25543	-298.40317	660.17562	1434.60276	-130.37004	671.94761	1310.47231	-425.44801	705.37655	1342.59045	-245.08744	704.68459	1326.36418	-288.72373	694.28792	1321.43841	-43.35014	585.14198	1131.97181	-8.35352	614.34742	1154.87217	48.89988	674.27220	1088.38796	62.52334	709.82588	918.97459	49.83561	693.12917	928.71916	96.87131	699.25477	1160.74462	-439.84887	630.21026	976.41929	-354.78300	642.75916	972.15792	-432.63110	692.99235	916.48213	-439.69847	753.18913	754.32661	-395.20228	713.73612	748.40689	-426.37280	619.06934	855.53404	-57.75753	637.19068	858.10875	-246.43645	630.38986	869.78084	-66.26695	643.98441	866.55173	-233.22297	
